<?xml version="1.0" standalone="no"?>
<!-- Generator: Adobe Fireworks 10, Export SVG Extension by Aaron Beall (http://fireworks.abeall.com) . Version: 0.6.1  -->
<!DOCTYPE svg PUBLIC "-//W3C//DTD SVG 1.1//EN" "http://www.w3.org/Graphics/SVG/1.1/DTD/svg11.dtd">
<svg id="Untitled-Page%201" viewBox="0 0 230 69" style="background-color:#ffffff00" version="1.1"
	xmlns="http://www.w3.org/2000/svg" xmlns:xlink="http://www.w3.org/1999/xlink" xml:space="preserve"
	x="0px" y="0px" width="230px" height="69px"
>
	<g id="Layer%201">
		<path d="M 0.0625 47.019 L 3.9375 47.019 L 3.9375 24.8438 L 4.4923 24.8438 L 12.9328 47.019 L 19.9375 47.019 L 19.9375 21.1563 L 16.0625 21.1563 L 16.0625 43.2955 L 15.469 43.2955 L 7.2265 21.1563 L 0.0625 21.1563 L 0.0625 47.019 L 0.0625 47.019 Z" fill="#ffc765"/>
		<path d="M 24.0625 46.9375 L 28.2003 46.9375 L 29.5795 41.8617 L 39.3834 41.8617 L 40.7627 46.9375 L 44.9375 46.9375 L 38.6006 21.1563 L 30.3623 21.1563 L 24.0625 46.9375 L 24.0625 46.9375 ZM 33.5682 24.8438 L 35.432 24.8438 L 38.5633 38.1383 L 30.3996 38.1383 L 33.5682 24.8438 L 33.5682 24.8438 Z" fill="#ffc765"/>
		<path d="M 63.4179 21.0501 C 63.4179 21.0501 58.7911 20.1383 55.4418 20.1383 C 50.2395 20.1383 47.0625 22.304 47.0625 27.5405 C 47.0625 32.0582 49.2969 33.7666 54.8258 35.2092 C 58.8681 36.1583 60.0625 36.9176 60.0625 39.1195 C 60.0625 41.8529 58.5601 43.2955 55.2878 43.2955 C 52.5544 43.2955 47.6909 42.6122 47.6909 42.6122 L 47.3069 45.9931 C 47.3069 45.9931 52.1309 47.019 55.5573 47.019 C 60.6851 47.019 63.9375 44.5494 63.9375 38.8538 C 63.9375 34.412 62.138 32.9694 56.8277 31.4508 C 52.3234 30.236 50.9375 29.6665 50.9375 27.2368 C 50.9375 24.997 52.5929 23.8617 55.8267 23.8617 C 58.0596 23.8617 63.1066 24.4655 63.1066 24.4655 L 63.4179 21.0501 L 63.4179 21.0501 ZM 54.3638 16.9375 L 57.9826 16.9375 L 62.8298 12.0625 L 58.6371 12.0625 L 56.2117 14.3127 L 53.7094 12.0625 L 49.3667 12.0625 L 54.3638 16.9375 L 54.3638 16.9375 Z" fill="#ffc765"/>
		<path d="M 69.0625 47.019 L 85.1337 47.019 L 85.1337 43.2955 L 72.9375 43.2955 L 72.9375 35.8438 L 82.854 35.8438 L 82.854 32.1563 L 72.9375 32.1563 L 72.9375 24.8438 L 85.1337 24.8438 L 85.1337 21.1563 L 69.0625 21.1563 L 69.0625 47.019 L 69.0625 47.019 Z" fill="#ffc765"/>
		<path d="M 104.31 47.038 L 104.31 43.2766 L 93.9375 43.2766 L 93.9375 21.0118 L 90.0625 21.0118 L 90.0625 47.038 L 104.31 47.038 L 104.31 47.038 Z" fill="#ffc765"/>
		<path d="M 108.0625 46.2143 C 108.0625 49.6796 107.2924 50.5197 103.582 52.6199 L 104.4221 54.3001 C 108.9062 51.9549 109.9375 50.3797 109.9375 46.2493 L 109.9375 29.0625 L 108.0625 29.0625 L 108.0625 46.2143 L 108.0625 46.2143 ZM 108.0625 24.8438 L 109.9375 24.8438 L 109.9375 22.1563 L 108.0625 22.1563 L 108.0625 24.8438 L 108.0625 24.8438 Z" fill="#ffc765"/>
		<path d="M 126.4147 29.5976 C 126.4147 29.5976 122.938 29.0076 120.1891 29.0076 C 117.0004 29.0076 114.0625 30.1186 114.0625 33.8949 C 114.0625 37.2547 115.6912 37.9821 119.8592 38.6056 C 123.9642 39.1944 125.0625 39.6447 125.0625 41.7229 C 125.0625 44.4247 123.2312 45.1174 120.0791 45.1174 C 118.2099 45.1174 114.4005 44.5286 114.4005 44.5286 L 114.2776 46.316 C 114.2776 46.3673 117.99 46.9924 120.2257 46.9924 C 124.6239 46.9924 126.9375 45.6727 126.9375 41.619 C 126.9375 38.2938 125.462 37.4972 120.8488 36.7698 C 116.8538 36.1463 115.9375 35.6267 115.9375 33.8256 C 115.9375 31.4702 117.99 30.8826 120.2624 30.8826 C 122.6814 30.8826 126.3532 31.4356 126.3532 31.4356 L 126.4147 29.5976 L 126.4147 29.5976 Z" fill="#ffc765"/>
		<path d="M 136.9281 45.1174 C 133.1582 45.1174 131.9375 42.9449 131.9375 38.8751 L 143.875 38.8751 L 143.9375 37.1949 C 143.9375 31.4384 141.7752 29.035 137.1436 29.035 C 132.7633 29.035 130.0625 31.4384 130.0625 38.07 C 130.0625 43.8415 131.4454 46.9577 136.7127 46.9924 C 139.5132 46.9924 143.375 46.5062 143.375 46.5062 L 143.3125 44.807 C 143.3125 44.807 139.5491 45.1174 136.9281 45.1174 L 136.9281 45.1174 ZM 131.9375 37.1249 C 131.9375 32.5689 133.8763 30.8552 137.1436 30.8552 C 140.5185 30.8552 142.0625 32.5004 142.0625 37.1249 L 131.9375 37.1249 L 131.9375 37.1249 Z" fill="#ffc765"/>
		<path d="M 150.9375 46.9375 L 150.9375 32.3639 C 150.9375 32.3639 153.324 30.8826 156.0614 30.8826 C 159.5007 30.8826 160.0625 32.5751 160.0625 37.8554 L 160.0625 46.9375 L 161.9375 46.9375 L 161.9375 37.785 C 161.9375 35.4617 161.8125 33.3495 161.4687 32.3639 C 161.4687 32.3639 163.929 30.8826 166.8981 30.8826 C 170.4828 30.8826 171.0625 32.6103 171.0625 37.785 L 171.0625 46.9375 L 172.9375 46.9375 L 172.9375 37.6794 C 172.9375 31.167 171.9524 29.0076 167.1516 29.0076 C 163.8204 29.0076 160.8125 30.8479 160.8125 30.8479 C 160.0272 29.5629 158.7286 29.0076 156.3071 29.0076 C 153.6047 29.0076 150.9375 30.6395 150.9375 30.6395 L 150.9375 29.2101 L 149.0625 29.2101 L 149.0625 46.9375 L 150.9375 46.9375 L 150.9375 46.9375 Z" fill="#ffc765"/>
		<path d="M 199.8732 26.8397 L 199.8732 23 L 195.9375 23 L 195.9375 18.5523 L 192.0625 18.5523 L 192.0625 23 L 190.1746 23 L 190.1746 26.8397 L 192.0625 26.8397 L 192.0625 33.0657 C 192.0625 37.5281 193.0745 39 196.6414 39 C 197.7614 39 199.9052 38.52 199.9052 38.52 L 199.7132 35.1004 C 199.7132 35.1004 198.1773 35.1603 197.2814 35.1603 C 195.9375 35.1603 195.9375 34.4721 195.9375 32.9759 L 195.9375 26.8397 L 199.8732 26.8397 L 199.8732 26.8397 Z" fill="#ffc96c"/>
		<path d="M 209.5004 23 C 203.6578 23 202.0625 26.604 202.0625 30.9724 C 202.0625 35.3293 203.6578 39 209.5004 39 C 215.3415 39 216.9375 35.3293 216.9375 30.9724 C 216.9375 26.604 215.3415 23 209.5004 23 L 209.5004 23 ZM 209.5004 35.1603 C 206.6956 35.1603 205.9375 33.6987 205.9375 30.9724 C 205.9375 28.246 206.6956 26.8397 209.5004 26.8397 C 212.3052 26.8397 213.0625 28.246 213.0625 30.9724 C 213.0625 33.6987 212.3052 35.1603 209.5004 35.1603 L 209.5004 35.1603 Z" fill="#ffc96c"/>
		<path id="lupa" d="M 221.8157 8.1818 C 216.5383 2.9056 209.5215 0 202.0579 0 C 194.5944 0 187.5779 2.9056 182.3006 8.1818 C 177.0228 13.4582 174.1161 20.4735 174.1161 27.9353 C 174.1161 33.6196 175.8071 39.0418 178.9436 43.6362 L 162.5186 60.0571 C 160.4763 62.0996 160.4763 65.4226 162.5189 67.4653 C 163.5084 68.455 164.8245 69 166.2237 69 C 167.623 69 168.9393 68.455 169.9285 67.4653 L 186.3532 51.0445 C 190.9487 54.1802 196.3721 55.8708 202.0574 55.8708 C 209.5212 55.8708 216.5377 52.9651 221.8151 47.6885 C 227.0928 42.4124 229.9991 35.3976 229.9991 27.9353 C 229.9998 20.4735 227.0934 13.4582 221.8157 8.1818 ZM 219.5593 45.4327 C 214.8847 50.1062 208.6692 52.6804 202.0577 52.6804 C 195.4464 52.6804 189.2311 50.1065 184.5563 45.4327 C 179.8815 40.7588 177.3069 34.5451 177.3069 27.935 C 177.3069 21.3253 179.8815 15.1115 184.5563 10.4374 C 189.2311 5.7639 195.4468 3.1903 202.0579 3.1903 C 208.6695 3.1903 214.8847 5.7639 219.5596 10.4377 C 224.2341 15.1115 226.8091 21.3256 226.8091 27.9353 C 226.8087 34.5451 224.2341 40.7593 219.5593 45.4327 ZM 203.6538 8.9274 C 203.6538 9.8086 202.9397 10.5225 202.0582 10.5225 C 192.4545 10.5225 184.6415 18.3337 184.6415 27.935 C 184.6415 28.8162 183.9274 29.5302 183.046 29.5302 C 182.1647 29.5302 181.4504 28.8162 181.4504 27.935 C 181.4504 16.5746 190.6953 7.3322 202.0582 7.3322 C 202.9393 7.3322 203.6538 8.0466 203.6538 8.9274 Z" fill="#ffc664"/>
	</g>
</svg>