<?xml version="1.0" encoding="utf-8"?>
<!-- Generator: Adobe Illustrator 16.0.0, SVG Export Plug-In . SVG Version: 6.00 Build 0)  -->
<!DOCTYPE svg PUBLIC "-//W3C//DTD SVG 1.1//EN" "http://www.w3.org/Graphics/SVG/1.1/DTD/svg11.dtd">
<svg version="1.1" id="Layer_1" xmlns="http://www.w3.org/2000/svg" xmlns:xlink="http://www.w3.org/1999/xlink" x="0px" y="0px"
	 width="48.001px" height="48.003px" viewBox="0 0 48.001 48.003" enable-background="new 0 0 48.001 48.003" xml:space="preserve">
<path id="Forma_x25_201" fill="#FFFFFF" d="M23.999,48.003c-6.413,0-12.44-2.497-16.974-7.029C2.493,36.441-0.002,30.414,0,24.004
	c-0.002-6.41,2.491-12.437,7.021-16.972C11.551,2.498,17.578,0,23.988,0h0.016c13.228,0,23.993,10.766,23.997,23.999
	C47.997,37.235,37.229,48.003,23.999,48.003z M24.003,1.997h-0.015c-5.877,0-11.401,2.29-15.555,6.447
	c-4.154,4.157-6.439,9.683-6.438,15.561c-0.002,5.877,2.287,11.402,6.441,15.557c4.154,4.156,9.682,6.445,15.562,6.445
	c12.13,0,22.001-9.873,22.005-22.008C46,11.868,36.131,1.997,24.003,1.997z M24.02,43.423h-0.002c-5.188,0-10.062-2.02-13.731-5.688
	c-3.669-3.668-5.688-8.545-5.688-13.73c-0.001-5.186,2.019-10.062,5.686-13.731c3.669-3.668,8.542-5.688,13.729-5.688h0.005
	c5.188,0.002,10.064,2.021,13.732,5.688c3.667,3.667,5.686,8.543,5.685,13.731C43.438,34.709,34.727,43.42,24.02,43.423z
	 M36.338,11.686c-3.289-3.291-7.666-5.102-12.32-5.104l-0.005-0.998v0.998c-4.651,0-9.026,1.812-12.317,5.104
	c-3.289,3.292-5.102,7.667-5.1,12.319c-0.002,4.652,1.811,9.027,5.102,12.318c3.291,3.292,7.666,5.104,12.32,5.104c0,0,0,0,0.002,0
	c9.606-0.003,17.421-7.818,17.418-17.422C41.439,19.35,39.629,14.976,36.338,11.686z M36.979,24.894l-11.7,7.788
	c-0.306,0.205-0.699,0.223-1.024,0.05c-0.322-0.175-0.525-0.513-0.525-0.881v-4.432H13.493c-0.003,0-0.007-0.002-0.011-0.002
	c-1.498-0.007-2.67-1.44-2.67-3.271c0-1.756,1.082-3.133,2.491-3.25c0.063-0.013,0.122-0.039,0.189-0.039h10.235V16.27
	c0-0.368,0.203-0.706,0.527-0.88c0.146-0.08,0.309-0.119,0.471-0.119c0.192,0,0.387,0.057,0.555,0.168l11.699,7.795
	c0.277,0.186,0.443,0.497,0.443,0.83C37.424,24.398,37.258,24.709,36.979,24.894z M25.725,18.134v3.707
	c0,0.433-0.277,0.792-0.661,0.931c-0.122,0.053-0.256,0.084-0.397,0.084H13.57c-0.026,0.002-0.049,0.016-0.077,0.016
	c-0.278,0-0.685,0.497-0.685,1.276c0,0.777,0.404,1.275,0.685,1.275c0.002,0,0.003,0.001,0.005,0.001H24.67
	c0.162,0,0.309,0.047,0.443,0.114c0.359,0.151,0.611,0.506,0.611,0.921v3.529l8.901-5.925L25.725,18.134z"/>
</svg>
