<?xml version="1.0" encoding="utf-8"?>
<!-- Generator: Adobe Illustrator 16.0.0, SVG Export Plug-In . SVG Version: 6.00 Build 0)  -->
<!DOCTYPE svg PUBLIC "-//W3C//DTD SVG 1.1//EN" "http://www.w3.org/Graphics/SVG/1.1/DTD/svg11.dtd">
<svg version="1.1" id="Untitled-Page_x25_201" xmlns="http://www.w3.org/2000/svg" xmlns:xlink="http://www.w3.org/1999/xlink"
	 x="0px" y="0px" width="105px" height="19.023px" viewBox="0 19.975 105 19.023" enable-background="new 0 19.975 105 19.023"
	 xml:space="preserve">
<path fill="none" d="z"/>
<g id="Layer_x25_201">
	<rect display="none" fill="#4DFFFF" width="105" height="20"/>
	<path id="Forma_x25_2012" fill="#FFC765" d="M19.281,28.257l-3.984,3.937l0.94,5.557c0.067,0.4-0.096,0.805-0.419,1.044
		c-0.184,0.135-0.401,0.204-0.619,0.204c-0.168,0-0.336-0.041-0.49-0.123l-4.926-2.623l-4.926,2.623
		c-0.355,0.189-0.785,0.157-1.109-0.08c-0.324-0.24-0.487-0.645-0.418-1.045l0.94-5.557l-3.985-3.936
		c-0.288-0.283-0.39-0.707-0.268-1.094c0.125-0.387,0.454-0.668,0.851-0.727l5.507-0.811l2.464-5.057
		c0.177-0.365,0.543-0.595,0.944-0.595c0.402,0,0.767,0.23,0.944,0.595l2.464,5.056l5.508,0.812c0.396,0.059,0.726,0.34,0.849,0.727
		C19.672,27.55,19.567,27.974,19.281,28.257z"/>
	<path id="Forma_x25_201_x25_20kopie2" fill="#FFC765" d="M40.633,28.257l-3.984,3.937l0.94,5.557
		c0.067,0.4-0.096,0.805-0.419,1.044c-0.184,0.135-0.401,0.204-0.619,0.204c-0.167,0-0.336-0.041-0.49-0.123l-4.926-2.623
		l-4.926,2.623c-0.354,0.189-0.785,0.157-1.109-0.08c-0.324-0.24-0.486-0.645-0.418-1.045l0.941-5.557l-3.985-3.936
		c-0.288-0.283-0.39-0.707-0.268-1.094c0.124-0.387,0.453-0.668,0.851-0.727l5.507-0.811l2.464-5.057
		c0.176-0.365,0.543-0.595,0.943-0.595c0.402,0,0.767,0.23,0.944,0.595l2.464,5.056l5.508,0.812c0.396,0.059,0.726,0.34,0.849,0.727
		C41.023,27.55,40.918,27.974,40.633,28.257z"/>
	<path id="Forma_x25_201_x25_20kopie_x25_2022" fill="#FFC765" d="M61.984,28.257L58,32.193l0.939,5.557
		c0.068,0.4-0.096,0.805-0.419,1.044c-0.184,0.135-0.401,0.204-0.62,0.204c-0.167,0-0.335-0.041-0.489-0.123l-4.926-2.623
		l-4.926,2.623c-0.354,0.189-0.784,0.157-1.109-0.08c-0.324-0.24-0.487-0.645-0.418-1.045l0.94-5.557l-3.985-3.936
		c-0.288-0.283-0.39-0.707-0.268-1.094c0.125-0.387,0.454-0.668,0.851-0.727l5.507-0.811l2.464-5.057
		c0.176-0.365,0.543-0.595,0.943-0.595c0.402,0,0.767,0.23,0.945,0.595l2.463,5.056l5.509,0.812c0.396,0.059,0.726,0.34,0.849,0.727
		C62.375,27.55,62.27,27.974,61.984,28.257z"/>
	<path id="Forma_x25_201_x25_20kopie_x25_2032" fill="#FFC765" d="M83.335,28.257l-3.984,3.937l0.94,5.557
		c0.067,0.4-0.096,0.805-0.42,1.044c-0.184,0.135-0.4,0.204-0.619,0.204c-0.167,0-0.336-0.041-0.489-0.123l-4.927-2.623
		l-4.926,2.623c-0.354,0.189-0.784,0.157-1.109-0.08c-0.324-0.24-0.486-0.645-0.418-1.045l0.94-5.557l-3.985-3.936
		c-0.287-0.283-0.389-0.707-0.267-1.094c0.124-0.387,0.453-0.668,0.851-0.727l5.507-0.811l2.464-5.057
		c0.177-0.365,0.543-0.595,0.943-0.595c0.402,0,0.768,0.23,0.944,0.595l2.464,5.056l5.508,0.812c0.396,0.059,0.727,0.34,0.85,0.727
		C83.727,27.55,83.621,27.974,83.335,28.257z"/>
	<path id="Forma_x25_201_x25_20kopie_x25_2042" fill="#E0E0E0" d="M104.687,28.257l-3.985,3.937l0.941,5.557
		c0.066,0.4-0.096,0.805-0.42,1.044c-0.184,0.135-0.4,0.204-0.619,0.204c-0.168,0-0.336-0.041-0.49-0.123l-4.926-2.623l-4.926,2.623
		c-0.354,0.189-0.784,0.157-1.109-0.08c-0.324-0.24-0.486-0.645-0.418-1.045l0.94-5.557l-3.985-3.936
		c-0.287-0.283-0.39-0.707-0.268-1.094c0.125-0.387,0.453-0.668,0.851-0.727l5.507-0.811l2.465-5.057
		c0.176-0.365,0.543-0.595,0.943-0.595c0.402,0,0.767,0.23,0.944,0.595l2.464,5.056l5.508,0.812c0.396,0.059,0.727,0.34,0.849,0.727
		C105.077,27.55,104.973,27.974,104.687,28.257z"/>
</g>
<path fill="none" d="z"/>
</svg>
