<?xml version="1.0" encoding="utf-8"?>
<!-- Generator: Adobe Illustrator 16.0.0, SVG Export Plug-In . SVG Version: 6.00 Build 0)  -->
<!DOCTYPE svg PUBLIC "-//W3C//DTD SVG 1.1//EN" "http://www.w3.org/Graphics/SVG/1.1/DTD/svg11.dtd">
<svg version="1.1" id="Untitled-Page_x25_201" xmlns="http://www.w3.org/2000/svg" xmlns:xlink="http://www.w3.org/1999/xlink"
	 x="0px" y="0px" width="105px" height="18.998px" viewBox="0 0 105 18.998" enable-background="new 0 0 105 18.998"
	 xml:space="preserve">
<path fill="none" d="z"/>
<g id="Layer_x25_201">
	<rect display="none" fill="#4DFFFF" width="105" height="20"/>
	<path id="Forma_x25_201" fill="#FFC765" d="M19.281,8.275l-3.984,3.929l0.94,5.548c0.067,0.399-0.096,0.804-0.419,1.042
		c-0.184,0.135-0.401,0.204-0.619,0.204c-0.168,0-0.336-0.041-0.49-0.122l-4.926-2.62l-4.926,2.62
		c-0.355,0.188-0.785,0.157-1.109-0.081c-0.324-0.239-0.487-0.642-0.418-1.042l0.94-5.548L0.285,8.275
		c-0.288-0.283-0.39-0.706-0.267-1.092c0.124-0.386,0.453-0.667,0.85-0.725l5.507-0.81l2.464-5.048
		c0.177-0.364,0.543-0.594,0.944-0.594c0.402,0,0.767,0.23,0.944,0.594l2.464,5.048l5.508,0.81c0.396,0.058,0.726,0.339,0.849,0.725
		C19.672,7.568,19.567,7.992,19.281,8.275z"/>
	<path id="Forma_x25_201_x25_20kopie" fill="#FFC765" d="M40.633,8.275l-3.985,3.929l0.94,5.548
		c0.067,0.399-0.096,0.804-0.419,1.042c-0.184,0.135-0.401,0.204-0.619,0.204c-0.167,0-0.335-0.041-0.49-0.122l-4.926-2.62
		l-4.926,2.62c-0.355,0.188-0.785,0.157-1.109-0.081c-0.324-0.239-0.487-0.642-0.418-1.042l0.94-5.548l-3.984-3.929
		c-0.288-0.283-0.39-0.706-0.268-1.092c0.124-0.386,0.453-0.667,0.85-0.725l5.507-0.81l2.464-5.048
		c0.176-0.364,0.542-0.594,0.943-0.594c0.402,0,0.767,0.23,0.944,0.594l2.464,5.048l5.508,0.81c0.396,0.058,0.726,0.339,0.848,0.725
		C41.023,7.568,40.918,7.992,40.633,8.275z"/>
	<path id="Forma_x25_201_x25_20kopie_x25_202" fill="#FFC765" d="M61.984,8.275L58,12.204l0.939,5.548
		c0.068,0.399-0.096,0.804-0.419,1.042c-0.184,0.135-0.401,0.204-0.619,0.204c-0.168,0-0.336-0.041-0.49-0.122l-4.926-2.62
		l-4.925,2.62c-0.355,0.188-0.785,0.157-1.109-0.081c-0.324-0.239-0.487-0.642-0.419-1.042l0.941-5.548l-3.985-3.929
		c-0.288-0.283-0.39-0.706-0.268-1.092c0.125-0.386,0.454-0.667,0.851-0.725l5.507-0.81l2.464-5.048
		c0.176-0.364,0.543-0.594,0.943-0.594c0.402,0,0.767,0.23,0.945,0.594l2.463,5.048l5.509,0.81c0.396,0.058,0.726,0.339,0.849,0.725
		C62.375,7.568,62.27,7.992,61.984,8.275z"/>
	<path id="Forma_x25_201_x25_20kopie_x25_203" fill="#FFC765" d="M83.335,8.275l-3.984,3.929l0.94,5.548
		c0.067,0.399-0.096,0.804-0.42,1.042c-0.184,0.135-0.4,0.204-0.619,0.204c-0.167,0-0.336-0.041-0.49-0.122l-4.926-2.62l-4.926,2.62
		c-0.354,0.188-0.784,0.157-1.109-0.081c-0.324-0.239-0.486-0.642-0.418-1.042l0.94-5.548l-3.985-3.929
		c-0.287-0.283-0.389-0.706-0.267-1.092c0.124-0.386,0.453-0.667,0.851-0.725l5.507-0.81l2.464-5.048
		c0.177-0.364,0.543-0.594,0.943-0.594c0.402,0,0.768,0.23,0.944,0.594l2.464,5.048l5.508,0.81c0.396,0.058,0.727,0.339,0.85,0.725
		C83.727,7.568,83.621,7.992,83.335,8.275z"/>
	<path id="Forma_x25_201_x25_20kopie_x25_204" fill="#FFC765" d="M104.687,8.275l-3.984,3.929l0.94,5.548
		c0.066,0.399-0.096,0.804-0.42,1.042c-0.184,0.135-0.4,0.204-0.619,0.204c-0.168,0-0.336-0.041-0.49-0.122l-4.926-2.62l-4.926,2.62
		c-0.354,0.188-0.785,0.157-1.109-0.081c-0.324-0.239-0.486-0.642-0.418-1.042l0.94-5.548l-3.985-3.929
		c-0.287-0.283-0.39-0.706-0.268-1.092c0.125-0.386,0.453-0.667,0.851-0.725l5.507-0.81l2.465-5.048
		c0.176-0.364,0.543-0.594,0.943-0.594c0.402,0,0.767,0.23,0.944,0.594l2.464,5.048l5.508,0.81c0.396,0.058,0.727,0.339,0.849,0.725
		C105.077,7.568,104.973,7.992,104.687,8.275z"/>
</g>
<path fill="none" d="z"/>
</svg>
