<?xml version="1.0" standalone="no"?>
<!-- Generator: Adobe Fireworks 10, Export SVG Extension by Aaron Beall (http://fireworks.abeall.com) . Version: 0.6.1  -->
<!DOCTYPE svg PUBLIC "-//W3C//DTD SVG 1.1//EN" "http://www.w3.org/Graphics/SVG/1.1/DTD/svg11.dtd">
<svg id="Untitled-Page%201" viewBox="0 0 105 40" style="background-color:#ffffff00" version="1.1"
	xmlns="http://www.w3.org/2000/svg" xmlns:xlink="http://www.w3.org/1999/xlink" xml:space="preserve"
	x="0px" y="0px" width="105px" height="40px"
>
	<g id="Layer%201">
		<rect visibility="hidden" x="0" y="0" width="105" height="20" fill="#4dffff"/>
		<path id="Forma%201" d="M 19.2814 8.2747 L 15.2969 12.2039 L 16.2374 17.7518 C 16.3047 18.1513 16.1417 18.5554 15.8178 18.7942 C 15.6342 18.9288 15.4167 18.9975 15.1987 18.9975 C 15.031 18.9975 14.8629 18.957 14.7086 18.8753 L 9.7827 16.256 L 4.8568 18.8753 C 4.502 19.0641 4.0722 19.0324 3.7474 18.7946 C 3.4235 18.5559 3.2608 18.1523 3.3289 17.7524 L 4.2696 12.2044 L 0.2847 8.2752 C -0.0032 7.9926 -0.1052 7.5691 0.0174 7.1835 C 0.1416 6.7978 0.4707 6.5173 0.8676 6.4586 L 6.3747 5.6487 L 8.8391 0.6006 C 9.0154 0.2363 9.3818 0.0062 9.7827 0.0062 C 10.1847 0.0062 10.5493 0.2363 10.7267 0.6001 L 13.1907 5.6481 L 18.6989 6.4582 C 19.0947 6.5161 19.4249 6.7974 19.5472 7.183 C 19.6722 7.5685 19.5674 7.992 19.2814 8.2747 Z" fill="#ffc765"/>
		<path id="Forma%201%20kopie" d="M 40.6326 8.2747 L 36.6481 12.2039 L 37.5886 17.7518 C 37.656 18.1513 37.4929 18.5554 37.1691 18.7942 C 36.9855 18.9288 36.7679 18.9975 36.5499 18.9975 C 36.3823 18.9975 36.2142 18.957 36.0599 18.8753 L 31.1339 16.256 L 26.208 18.8753 C 25.8532 19.0641 25.4234 19.0324 25.0988 18.7946 C 24.7747 18.5559 24.612 18.1523 24.6801 17.7524 L 25.6208 12.2044 L 21.6361 8.2752 C 21.3481 7.9926 21.2461 7.5691 21.3687 7.1835 C 21.4928 6.7978 21.822 6.5173 22.2188 6.4586 L 27.726 5.6487 L 30.1903 0.6006 C 30.3667 0.2363 30.733 0.0062 31.1339 0.0062 C 31.5359 0.0062 31.9005 0.2363 32.0779 0.6001 L 34.5419 5.6481 L 40.0501 6.4582 C 40.4459 6.5161 40.7761 6.7974 40.8986 7.183 C 41.0234 7.5685 40.9186 7.992 40.6326 8.2747 Z" fill="#ffc765"/>
		<path id="Forma%201%20kopie%202" d="M 61.9839 8.2747 L 57.9995 12.2039 L 58.9398 17.7518 C 59.0073 18.1513 58.8442 18.5554 58.5203 18.7942 C 58.3367 18.9288 58.1192 18.9975 57.9012 18.9975 C 57.7336 18.9975 57.5654 18.957 57.4111 18.8753 L 52.4851 16.256 L 47.5594 18.8753 C 47.2045 19.0641 46.7747 19.0324 46.45 18.7946 C 46.126 18.5559 45.9633 18.1523 46.0314 17.7524 L 46.9722 12.2044 L 42.9874 8.2752 C 42.6993 7.9926 42.5974 7.5691 42.7199 7.1835 C 42.8441 6.7978 43.1732 6.5173 43.5702 6.4586 L 49.0772 5.6487 L 51.5416 0.6006 C 51.7179 0.2363 52.0844 0.0062 52.4851 0.0062 C 52.8873 0.0062 53.2518 0.2363 53.4291 0.6001 L 55.8933 5.6481 L 61.4014 6.4582 C 61.7973 6.5161 62.1274 6.7974 62.2498 7.183 C 62.3746 7.5685 62.2698 7.992 61.9839 8.2747 Z" fill="#ffc765"/>
		<path id="Forma%201%20kopie%203" d="M 83.3352 8.2747 L 79.3507 12.2039 L 80.2912 17.7518 C 80.3585 18.1513 80.1955 18.5554 79.8715 18.7942 C 79.688 18.9288 79.4704 18.9975 79.2524 18.9975 C 79.0848 18.9975 78.9166 18.957 78.7624 18.8753 L 73.8364 16.256 L 68.9106 18.8753 C 68.5558 19.0641 68.1259 19.0324 67.8012 18.7946 C 67.4772 18.5559 67.3145 18.1523 67.3827 17.7524 L 68.3234 12.2044 L 64.3386 8.2752 C 64.0507 7.9926 63.9485 7.5691 64.0712 7.1835 C 64.1953 6.7978 64.5244 6.5173 64.9214 6.4586 L 70.4285 5.6487 L 72.8928 0.6006 C 73.0692 0.2363 73.4356 0.0062 73.8364 0.0062 C 74.2385 0.0062 74.603 0.2363 74.7804 0.6001 L 77.2446 5.6481 L 82.7526 6.4582 C 83.1486 6.5161 83.4786 6.7974 83.6011 7.183 C 83.726 7.5685 83.6211 7.992 83.3352 8.2747 Z" fill="#ffc765"/>
		<path id="Forma%201%20kopie%204" d="M 104.6865 8.2747 L 100.702 12.2039 L 101.6425 17.7518 C 101.7097 18.1513 101.5468 18.5554 101.2228 18.7942 C 101.0392 18.9288 100.8218 18.9975 100.6036 18.9975 C 100.4361 18.9975 100.2679 18.957 100.1137 18.8753 L 95.1876 16.256 L 90.2618 18.8753 C 89.9071 19.0641 89.4771 19.0324 89.1525 18.7946 C 88.8285 18.5559 88.6658 18.1523 88.7339 17.7524 L 89.6747 12.2044 L 85.6898 8.2752 C 85.4019 7.9926 85.2998 7.5691 85.4225 7.1835 C 85.5466 6.7978 85.8757 6.5173 86.2727 6.4586 L 91.7798 5.6487 L 94.2441 0.6006 C 94.4204 0.2363 94.7869 0.0062 95.1876 0.0062 C 95.5898 0.0062 95.9543 0.2363 96.1318 0.6001 L 98.5958 5.6481 L 104.1038 6.4582 C 104.4998 6.5161 104.83 6.7974 104.9523 7.183 C 105.0773 7.5685 104.9723 7.992 104.6865 8.2747 Z" fill="#ffc765"/>
		<path id="Forma%2012" d="M 19.2814 28.2571 L 15.2969 32.1927 L 16.2373 37.7498 C 16.3047 38.1499 16.1416 38.5547 15.8177 38.7938 C 15.6343 38.9288 15.4166 38.9975 15.1987 38.9975 C 15.031 38.9975 14.8629 38.9568 14.7086 38.875 L 9.7826 36.2515 L 4.8568 38.875 C 4.502 39.0641 4.0721 39.0324 3.7474 38.7944 C 3.4235 38.5552 3.2607 38.1509 3.3289 37.7504 L 4.2695 32.1931 L 0.2848 28.2576 C -0.0032 27.9744 -0.1052 27.5504 0.0173 27.164 C 0.1416 26.7778 0.4707 26.4966 0.8676 26.438 L 6.3748 25.6266 L 8.8391 20.5705 C 9.0154 20.2054 9.3817 19.975 9.7826 19.975 C 10.1847 19.975 10.5493 20.2054 10.7267 20.5699 L 13.1907 25.6262 L 18.6989 26.4376 C 19.0947 26.4957 19.4248 26.7772 19.5474 27.1636 C 19.6721 27.5498 19.5674 27.9738 19.2814 28.2571 Z" fill="#ffc765"/>
		<path id="Forma%201%20kopie2" d="M 40.6327 28.2571 L 36.6482 32.1927 L 37.5886 37.7498 C 37.656 38.1499 37.4929 38.5547 37.1691 38.7938 C 36.9855 38.9288 36.7679 38.9975 36.5499 38.9975 C 36.3823 38.9975 36.2141 38.9568 36.0598 38.875 L 31.1339 36.2515 L 26.2081 38.875 C 25.8533 39.0641 25.4233 39.0324 25.0988 38.7944 C 24.7748 38.5552 24.6121 38.1509 24.6801 37.7504 L 25.621 32.1931 L 21.6361 28.2576 C 21.348 27.9744 21.2461 27.5504 21.3687 27.164 C 21.4928 26.7778 21.8219 26.4966 22.219 26.438 L 27.726 25.6266 L 30.1903 20.5705 C 30.3667 20.2054 30.7332 19.975 31.1339 19.975 C 31.536 19.975 31.9005 20.2054 32.0779 20.5699 L 34.542 25.6262 L 40.05 26.4376 C 40.446 26.4957 40.7761 26.7772 40.8986 27.1636 C 41.0234 27.5498 40.9186 27.9738 40.6327 28.2571 Z" fill="#ffc765"/>
		<path id="Forma%201%20kopie%2022" d="M 61.9839 28.2571 L 57.9995 32.1927 L 58.9399 37.7498 C 59.0072 38.1499 58.8442 38.5547 58.5203 38.7938 C 58.3367 38.9288 58.1191 38.9975 57.9011 38.9975 C 57.7336 38.9975 57.5654 38.9568 57.4111 38.875 L 52.4851 36.2515 L 47.5593 38.875 C 47.2046 39.0641 46.7747 39.0324 46.45 38.7944 C 46.126 38.5552 45.9633 38.1509 46.0315 37.7504 L 46.9722 32.1931 L 42.9873 28.2576 C 42.6993 27.9744 42.5973 27.5504 42.7198 27.164 C 42.844 26.7778 43.1732 26.4966 43.5702 26.438 L 49.0771 25.6266 L 51.5415 20.5705 C 51.7179 20.2054 52.0844 19.975 52.4851 19.975 C 52.8872 19.975 53.2517 20.2054 53.4292 20.5699 L 55.8933 25.6262 L 61.4014 26.4376 C 61.7972 26.4957 62.1273 26.7772 62.2498 27.1636 C 62.3748 27.5498 62.2698 27.9738 61.9839 28.2571 Z" fill="#ffc765"/>
		<path id="Forma%201%20kopie%2032" d="M 83.3352 28.2571 L 79.3507 32.1927 L 80.2911 37.7498 C 80.3585 38.1499 80.1956 38.5547 79.8716 38.7938 C 79.688 38.9288 79.4705 38.9975 79.2524 38.9975 C 79.0848 38.9975 78.9166 38.9568 78.7625 38.875 L 73.8364 36.2515 L 68.9106 38.875 C 68.5558 39.0641 68.1259 39.0324 67.8013 38.7944 C 67.4772 38.5552 67.3145 38.1509 67.3827 37.7504 L 68.3234 32.1931 L 64.3386 28.2576 C 64.0507 27.9744 63.9486 27.5504 64.0713 27.164 C 64.1954 26.7778 64.5244 26.4966 64.9214 26.438 L 70.4286 25.6266 L 72.8928 20.5705 C 73.0691 20.2054 73.4355 19.975 73.8364 19.975 C 74.2385 19.975 74.6031 20.2054 74.7805 20.5699 L 77.2445 25.6262 L 82.7526 26.4376 C 83.1486 26.4957 83.4788 26.7772 83.6011 27.1636 C 83.726 27.5498 83.6211 27.9738 83.3352 28.2571 Z" fill="#ffc765"/>
		<path id="Forma%201%20kopie%2042" d="M 104.6864 28.2571 L 100.7019 32.1927 L 101.6425 37.7498 C 101.7097 38.1499 101.5468 38.5547 101.2228 38.7938 C 101.0392 38.9288 100.8218 38.9975 100.6036 38.9975 C 100.436 38.9975 100.2678 38.9568 100.1138 38.875 L 95.1876 36.2515 L 90.2618 38.875 C 89.9071 39.0641 89.4773 39.0324 89.1525 38.7944 C 88.8286 38.5552 88.6658 38.1509 88.7339 37.7504 L 89.6747 32.1931 L 85.6898 28.2576 C 85.4019 27.9744 85.2998 27.5504 85.4225 27.164 C 85.5466 26.7778 85.8756 26.4966 86.2727 26.438 L 91.7798 25.6266 L 94.244 20.5705 C 94.4205 20.2054 94.7869 19.975 95.1876 19.975 C 95.5897 19.975 95.9543 20.2054 96.1317 20.5699 L 98.5958 25.6262 L 104.1038 26.4376 C 104.4998 26.4957 104.83 26.7772 104.9523 27.1636 C 105.0773 27.5498 104.9723 27.9738 104.6864 28.2571 Z" fill="#e0e0e0"/>
	</g>
</svg>