<?xml version="1.0" standalone="no"?>
<!-- Generator: Adobe Fireworks 10, Export SVG Extension by Aaron Beall (http://fireworks.abeall.com) . Version: 0.6.1  -->
<!DOCTYPE svg PUBLIC "-//W3C//DTD SVG 1.1//EN" "http://www.w3.org/Graphics/SVG/1.1/DTD/svg11.dtd">
<svg id="Untitled-Page%201" viewBox="0 0 270 90" style="background-color:#ffffff00" version="1.1"
	xmlns="http://www.w3.org/2000/svg" xmlns:xlink="http://www.w3.org/1999/xlink" xml:space="preserve"
	x="0px" y="0px" width="270px" height="90px"
>
	<g id="Layer%201">
		<g visibility="hidden">
			<rect x="0" y="0" width="90" height="90" fill="#d9d900"/>
			<rect x="90" y="0" width="90" height="90" fill="#99ffb3"/>
			<rect x="180" y="0" width="90" height="90" fill="#d9d900"/>
		</g>
		<path id="zarovka" d="M 62.7358 43.3878 C 60.2413 47.5359 58.089 51.1165 58.089 54.5208 C 58.0771 54.9158 57.8171 62.3774 54.9824 66.9949 C 56.0019 67.5848 56.7048 68.728 56.7048 70.0556 L 56.7048 71.2261 C 56.7048 72.0764 56.4088 72.8468 55.9362 73.4534 C 56.4087 74.0597 56.7048 74.8299 56.7048 75.6806 L 56.7048 76.8512 C 56.7048 78.775 55.2471 80.3412 53.4533 80.3412 L 52.29 80.3412 C 51.7775 83.2579 48.8816 85.4996 45.3864 85.4996 C 41.8904 85.4996 38.9952 83.2567 38.4825 80.3412 L 37.3184 80.3412 C 35.5289 80.3412 34.0695 78.775 34.0695 76.8512 L 34.0695 75.6806 C 34.0695 74.8296 34.3655 74.0591 34.8379 73.4526 C 34.3656 72.8462 34.0695 72.0761 34.0695 71.2261 L 34.0695 70.0556 C 34.0695 68.7196 34.7792 67.5712 35.8071 66.9848 C 32.9775 62.3679 32.7162 54.9204 32.7059 54.5703 C 32.7059 51.1165 30.5519 47.5359 28.0581 43.3878 C 24.1884 36.9551 19.8026 29.6618 21.8387 20.1673 C 24.9517 5.6302 40.6222 4.5009 45.3511 4.5009 C 45.3669 4.5009 45.3814 4.5052 45.397 4.5056 C 45.4127 4.5052 45.4272 4.5009 45.4429 4.5009 C 50.1709 4.5009 65.8433 5.6302 68.957 20.1673 C 70.9914 29.6618 66.6065 36.9551 62.7358 43.3878 ZM 45.3864 82.9673 C 47.4506 82.9673 49.1756 81.8491 49.6909 80.3412 L 41.0817 80.3412 C 41.5968 81.8491 43.3214 82.9673 45.3864 82.9673 ZM 36.5854 76.8495 C 36.5854 77.3688 36.9204 77.8074 37.3184 77.8074 L 53.4533 77.8074 C 53.8513 77.8074 54.1888 77.3688 54.1888 76.8495 L 54.1888 75.679 C 54.1888 75.1581 53.8531 74.7195 53.4533 74.7195 L 37.3184 74.7195 C 36.9221 74.7195 36.5854 75.1596 36.5854 75.679 L 36.5854 76.8495 ZM 36.5854 71.2244 C 36.5854 71.7437 36.9204 72.1823 37.3184 72.1823 L 53.4533 72.1823 C 53.8513 72.1823 54.1888 71.7437 54.1888 71.2244 L 54.1888 70.054 C 54.1888 69.5347 53.8531 69.0961 53.4533 69.0961 L 37.3184 69.0961 C 36.9221 69.0961 36.5854 69.5347 36.5854 70.054 L 36.5854 71.2244 ZM 65.6794 20.8796 C 63.1618 9.1434 50.6885 7.8772 45.4429 7.8772 C 45.4272 7.8772 45.4127 7.873 45.397 7.8726 C 45.3814 7.873 45.3669 7.8772 45.3511 7.8772 C 40.1039 7.8772 27.6321 9.1434 25.1179 20.8796 C 23.3628 29.0617 27.2088 35.4566 30.9278 41.6387 C 33.5675 46.029 36.0621 50.1752 36.0621 54.5208 C 36.1309 56.7745 36.8573 63.3673 39.3429 66.1666 C 39.4512 66.2888 39.5312 66.4249 39.5981 66.5656 L 44.3001 66.5656 C 44.3016 65.7076 44.3456 64.416 44.4034 62.81 C 44.5673 58.1825 44.8728 49.5766 44.1768 42.14 C 40.7648 42.9098 38.4437 41.5613 37.1793 40.4352 C 33.6755 37.3177 32.8755 31.4784 34.4954 28.3396 C 35.4863 26.424 37.2594 25.6179 39.3528 26.1223 C 42.1006 26.7864 43.9301 29.3485 45.1194 33.1831 C 46.7361 27.286 49.4961 24.6813 51.971 24.2988 C 53.8712 24.0021 55.5763 25.0193 56.3101 26.8839 C 57.45 29.7788 56.2741 34.8927 49.2045 39.7874 C 48.2971 40.4155 47.437 40.9084 46.6262 41.2877 C 47.2618 47.5374 47.1964 55.1177 46.9194 62.904 C 46.8632 64.4685 46.8186 65.7275 46.8169 66.5656 L 51.1995 66.5656 C 51.2665 66.4249 51.3466 66.2888 51.4551 66.1666 C 53.9482 63.359 54.6687 56.7728 54.7344 54.473 C 54.7344 50.1752 57.2258 46.0307 59.8679 41.6387 C 63.5892 35.4549 67.4354 29.06 65.6794 20.8796 ZM 43.895 39.5995 C 43.1316 33.8573 41.6239 29.2727 38.769 28.5836 C 38.556 28.5324 38.3602 28.5061 38.18 28.5061 C 37.5411 28.5061 37.0818 28.8275 36.7312 29.5083 C 35.5904 31.7108 36.3454 36.3089 38.8483 38.5378 C 40.2167 39.7593 41.9279 40.1072 43.895 39.5995 ZM 46.6591 38.4141 C 47.026 38.2015 47.3995 37.9625 47.7794 37.6987 C 53.2241 33.9317 54.8065 29.9337 53.9709 27.817 C 53.8138 27.4114 53.4337 26.7784 52.6212 26.7784 C 52.5362 26.7784 52.4476 26.785 52.356 26.7996 C 50.7819 27.0438 47.7647 29.8299 46.6591 38.4141 Z" fill="#ffb549"/>
		<path id="budik" d="M 164.8435 20.8564 C 168.7397 25.2486 169.3027 30.4039 166.2202 34.6322 C 166.0123 34.9171 165.6948 35.0988 165.3452 35.1347 C 165.3064 35.1397 165.2661 35.1414 165.2258 35.1414 C 164.9181 35.1414 164.6216 35.0251 164.3927 34.8124 L 157.3015 28.2493 L 155.5546 30.0238 C 155.686 30.1526 155.829 30.2644 155.9585 30.3959 C 161.5969 36.1235 164.7037 43.7368 164.7021 51.8345 C 164.7034 58.0191 162.8803 63.9137 159.5138 68.9092 L 164.4056 77.4623 C 164.4553 77.5491 164.4696 77.6437 164.497 77.7359 C 165.6638 80.0858 164.8484 82.9869 162.5766 84.3209 C 161.8063 84.7744 160.9572 84.9904 160.1193 84.9904 C 158.4144 84.9904 156.7528 84.0917 155.8426 82.4875 C 155.8414 82.4854 155.8416 82.4829 155.8403 82.4807 L 152.3165 76.3933 C 147.2604 80.1207 141.2156 82.1618 134.8488 82.1618 C 128.362 82.1599 122.3577 80.04 117.4569 76.4569 L 113.9648 82.4957 C 113.9616 82.5011 113.9554 82.5028 113.9522 82.5082 C 113.2938 83.6547 112.2382 84.4789 110.9739 84.8217 C 110.5516 84.9381 110.1231 84.9952 109.6961 84.9952 C 108.8403 84.9952 107.996 84.7678 107.2338 84.3209 C 104.9426 82.9774 104.1301 80.0421 105.3358 77.6833 C 105.3613 77.6094 105.3695 77.5325 105.4096 77.4623 L 110.2534 68.991 C 106.9425 64.1077 104.9991 58.198 105.0004 51.8345 C 104.9987 43.368 108.4371 35.7037 113.967 30.197 L 111.9891 28.1878 L 104.828 34.8156 C 104.5974 35.0234 104.2994 35.1414 103.9932 35.1414 C 103.9529 35.1414 103.9126 35.1397 103.8739 35.1364 C 103.5242 35.1004 103.2083 34.9187 103.0006 34.6339 C 99.8652 30.3375 100.497 25.083 104.5659 20.647 L 102.9457 19.0013 C 102.4624 18.5103 102.4624 17.7131 102.9457 17.222 C 103.4308 16.731 104.2139 16.7325 104.6959 17.222 L 106.3754 18.9294 C 108.8705 16.8606 111.6348 15.7227 114.2515 15.7227 C 114.4851 15.7227 114.7108 15.7713 114.9417 15.7891 C 115.122 15.7482 115.3096 15.7365 115.5003 15.7848 C 115.6416 15.82 115.81 15.8534 115.9667 15.8877 C 115.9731 15.889 115.9794 15.8907 115.9859 15.892 C 118.1829 16.3712 121.7343 16.7237 123.303 15.8127 C 124.0216 15.3953 124.2989 14.2035 124.6242 12.8203 C 125.3624 9.6759 126.4791 4.9206 134.7908 4.9206 C 134.8088 4.9206 134.8238 4.9303 134.8416 4.931 C 134.8594 4.9303 134.8744 4.9206 134.8923 4.9206 C 143.204 4.9206 144.3224 9.6759 145.0588 12.8219 C 145.3827 14.2035 145.6616 15.397 146.3818 15.8142 C 147.7614 16.6169 150.5066 16.4229 152.451 16.1213 C 152.9955 15.9618 153.5499 15.8555 154.116 15.8014 C 154.1348 15.7968 154.1649 15.791 154.1827 15.7865 C 154.2395 15.7722 154.2939 15.785 154.3503 15.7788 C 154.5576 15.7645 154.7598 15.7193 154.9692 15.7193 C 157.6611 15.7193 160.5098 16.9255 163.0603 19.1092 L 164.9198 17.2203 C 165.4047 16.7293 166.1895 16.731 166.6713 17.2203 C 167.1548 17.7114 167.1548 18.5086 166.6713 18.9997 L 164.8435 20.8564 ZM 157.9825 81.2206 C 157.9858 81.2263 157.9854 81.2327 157.9885 81.2384 C 158.6641 82.4214 160.1636 82.8299 161.3423 82.1422 C 162.5122 81.4545 162.9167 79.9274 162.2432 78.7373 C 162.2195 78.6958 162.2183 78.6495 162.1999 78.6066 L 157.9052 71.0977 C 157.2938 71.8503 156.6464 72.5792 155.9585 73.2782 C 155.4208 73.8244 154.8514 74.3249 154.2812 74.8238 L 157.9825 81.2206 ZM 107.6043 78.6257 C 107.5879 78.6622 107.5875 78.7019 107.5673 78.7373 C 106.8921 79.9258 107.2966 81.4545 108.468 82.1422 C 109.0385 82.4761 109.7025 82.5643 110.3358 82.3925 C 110.9706 82.2208 111.4976 81.8083 111.8231 81.232 C 111.8245 81.2296 111.8268 81.2284 111.8282 81.2261 C 111.8289 81.2249 111.8288 81.2234 111.8295 81.2222 L 115.4926 74.8915 C 114.1838 73.7559 112.9686 72.5124 111.8695 71.1664 L 107.6043 78.6257 ZM 108.3006 51.8345 C 108.2973 66.7044 120.2074 78.8045 134.8488 78.8094 C 141.9407 78.8094 148.6088 76.0037 153.6252 70.908 C 158.64 65.8122 161.4019 59.0387 161.4019 51.8345 C 161.4019 44.6338 158.6415 37.8636 153.6252 32.7678 C 148.6088 27.672 141.9407 24.8665 134.8488 24.8665 C 120.2074 24.8714 108.2973 36.9682 108.3006 51.8345 ZM 114.2498 18.2335 C 111.989 18.2335 109.5203 19.3646 107.2981 21.4224 C 103.6854 24.7665 102.6041 28.6085 104.2575 31.9362 L 117.8918 19.3156 C 116.7686 18.5986 115.5487 18.2335 114.2498 18.2335 ZM 145.1538 17.9979 C 143.5054 17.0403 143.0704 15.1923 142.6498 13.4048 C 141.9326 10.3355 141.251 7.435 134.8923 7.435 C 134.8744 7.435 134.8594 7.4254 134.8416 7.4246 C 134.8238 7.4254 134.8088 7.435 134.7908 7.435 C 128.4337 7.435 127.7521 10.3355 127.0334 13.4064 C 126.6128 15.1923 126.1793 17.0403 124.5308 17.9996 C 123.5459 18.5695 122.2757 18.8059 120.9831 18.8719 C 121.0188 18.989 121.0593 19.1055 121.0599 19.2306 C 121.0615 19.5858 120.9149 19.9262 120.6555 20.1669 L 113.8214 26.4919 L 115.8047 28.5067 C 120.9753 24.1446 127.6129 21.5163 134.8456 21.5141 C 141.8048 21.5141 148.3993 23.9184 153.7144 28.3361 L 155.4692 26.5534 L 148.5652 20.1636 C 148.3076 19.923 148.1591 19.5841 148.1608 19.2273 C 148.1614 19.0952 148.2025 18.9713 148.2424 18.8482 C 147.1119 18.7503 146.0233 18.5015 145.1538 17.9979 ZM 161.9225 21.4224 C 159.5021 19.1833 156.84 18.1216 154.4071 18.3132 C 154.0674 18.3899 153.5536 18.4978 152.9048 18.6028 C 152.361 18.7767 151.8291 18.9962 151.3288 19.3173 L 158.1257 25.6095 C 158.1301 25.6138 158.1361 25.615 158.1404 25.6194 C 158.1432 25.6222 158.1439 25.626 158.1465 25.6288 L 164.9617 31.9378 C 166.6165 28.6102 165.5369 24.7682 161.9225 21.4224 ZM 134.8183 27.114 C 141.3171 27.114 147.4276 29.6856 152.0233 34.3524 C 156.616 39.0209 159.1475 45.2231 159.1459 51.8215 C 159.1475 58.4216 156.616 64.6272 152.0219 69.2956 C 147.4276 73.9641 141.3187 76.5357 134.8199 76.5357 C 121.4031 76.5324 110.4938 65.4457 110.4968 51.8215 C 110.4938 38.2023 121.4031 27.1172 134.8183 27.114 ZM 134.8199 74.8579 C 140.8773 74.8579 146.5703 72.4598 150.8551 68.1089 C 155.1399 63.7578 157.4958 57.973 157.4958 51.8198 C 157.4958 45.67 155.1383 39.8867 150.8568 35.5376 C 146.5703 31.1849 140.8787 28.7884 134.8214 28.7884 C 122.3168 28.7918 112.1439 39.1239 112.147 51.8198 C 112.1439 64.5207 122.3151 74.8546 134.8199 74.8579 ZM 121.113 51.8397 C 121.113 52.3027 120.744 52.6777 120.288 52.6777 L 116.0757 52.6777 C 115.6197 52.6777 115.2506 52.3027 115.2506 51.8397 C 115.2506 51.3763 115.6197 51.0015 116.0757 51.0015 L 120.288 51.0015 C 120.744 51.0015 121.113 51.3763 121.113 51.8397 ZM 118.0836 60.6346 L 121.7318 58.4969 C 122.1266 58.2645 122.6326 58.4036 122.8582 58.8045 C 123.0887 59.2057 122.9532 59.7181 122.5569 59.9489 L 118.9086 62.0866 C 118.7781 62.162 118.6362 62.198 118.496 62.198 C 118.2108 62.198 117.9338 62.0474 117.7823 61.779 C 117.5518 61.3796 117.6871 60.8655 118.0836 60.6346 ZM 122.2249 45.1839 C 122.0847 45.1839 121.9427 45.1479 121.8123 45.0709 L 118.1641 42.9315 C 117.7692 42.699 117.634 42.1867 117.8627 41.7856 C 118.0884 41.3829 118.5942 41.2487 118.9891 41.4795 L 122.6373 43.619 C 123.0322 43.8513 123.1675 44.3637 122.9404 44.7648 C 122.7874 45.0349 122.5085 45.1839 122.2249 45.1839 ZM 124.2681 56.4066 L 131.6479 52.2015 C 131.6317 52.0697 131.6083 51.9398 131.6083 51.8036 C 131.6083 50.0275 133.0279 48.5837 134.778 48.5837 C 136.3379 48.5837 137.629 49.7374 137.8892 51.2485 L 151.0116 54.488 C 151.6771 54.6518 152.0831 55.3311 151.9219 56.0072 C 151.7866 56.5818 151.2805 56.9665 150.723 56.9665 C 150.6248 56.9665 150.5281 56.9549 150.428 56.932 L 137.3245 53.697 C 136.7479 54.4948 135.8254 55.02 134.778 55.02 C 134.0695 55.02 133.4218 54.7751 132.8939 54.3758 L 125.48 58.6016 C 125.2882 58.708 125.0803 58.7605 124.8757 58.7605 C 124.4406 58.7605 124.02 58.5296 123.7944 58.1188 C 123.4609 57.5131 123.672 56.747 124.2681 56.4066 ZM 126.7595 64.2785 C 126.9883 63.8774 127.4926 63.7417 127.8875 63.9723 C 128.2808 64.2032 128.416 64.7156 128.1888 65.1167 L 126.0843 68.8209 C 125.9327 69.0894 125.6541 69.24 125.3704 69.24 C 125.2302 69.24 125.0884 69.2055 124.9579 69.1287 C 124.563 68.8961 124.4277 68.3838 124.6566 67.9827 L 126.7595 64.2785 ZM 134.8859 65.8909 C 135.342 65.8909 135.7109 66.2674 135.7109 66.729 L 135.7109 71.0078 C 135.7109 71.4695 135.3434 71.8459 134.8859 71.8459 C 134.4315 71.8459 134.0608 71.4695 134.0608 71.0078 L 134.0608 66.729 C 134.0608 66.2674 134.4315 65.8909 134.8859 65.8909 ZM 141.7088 64.0525 C 142.0939 63.8201 142.6046 63.9577 142.8351 64.3569 L 144.9427 68.0597 C 145.1716 68.4608 145.0364 68.9731 144.6398 69.2055 C 144.511 69.2825 144.3676 69.3185 144.2273 69.3185 C 143.9438 69.3185 143.6666 69.1695 143.5135 68.8995 L 141.4058 65.1968 C 141.177 64.7974 141.3123 64.2834 141.7088 64.0525 ZM 147.9255 58.6345 L 151.5706 60.7706 C 151.9655 61.0014 152.1008 61.5154 151.8719 61.9148 C 151.7204 62.1833 151.4434 62.3338 151.158 62.3338 C 151.018 62.3338 150.876 62.2994 150.7455 62.2225 L 147.1005 60.0863 C 146.7057 59.8556 146.5703 59.3416 146.7991 58.9422 C 147.0247 58.541 147.5275 58.4036 147.9255 58.6345 ZM 148.6217 51.869 C 148.6217 51.4075 148.9922 51.0309 149.4467 51.0309 L 153.6575 51.0277 C 154.1133 51.0277 154.4825 51.4041 154.4825 51.8657 C 154.4825 52.329 154.1133 52.7039 153.6575 52.7039 L 149.4467 52.707 C 148.9922 52.707 148.6217 52.3322 148.6217 51.869 ZM 151.6496 43.0674 L 148.0062 45.2084 C 147.8757 45.2869 147.7322 45.323 147.5937 45.323 C 147.31 45.323 147.0328 45.1741 146.8797 44.904 C 146.6493 44.5029 146.7845 43.9906 147.1811 43.7581 L 150.8246 41.6187 C 151.2129 41.3829 151.722 41.5204 151.9526 41.9232 C 152.1813 42.3242 152.046 42.8366 151.6496 43.0674 ZM 142.9769 39.4251 C 142.8237 39.6953 142.5467 39.8443 142.2614 39.8443 C 142.1212 39.8443 141.9793 39.8098 141.8489 39.7328 C 141.4542 39.5004 141.3187 38.9881 141.5442 38.587 L 143.6473 34.8828 C 143.8745 34.4834 144.3771 34.3442 144.7753 34.5765 C 145.17 34.8074 145.3053 35.3214 145.0798 35.7209 L 142.9769 39.4251 ZM 134.8569 37.8145 C 134.4008 37.8145 134.0319 37.4396 134.0319 36.9764 L 134.0319 32.6974 C 134.0319 32.2342 134.4008 31.8593 134.8569 31.8593 C 135.3129 31.8593 135.6819 32.2342 135.6819 32.6974 L 135.6819 36.9764 C 135.6819 37.4396 135.3129 37.8145 134.8569 37.8145 ZM 128.0261 39.656 C 127.8955 39.7328 127.7536 39.7673 127.6135 39.7673 C 127.3282 39.7673 127.0496 39.6167 126.8981 39.3482 L 124.7935 35.6423 C 124.563 35.2412 124.6985 34.7289 125.0948 34.4982 C 125.488 34.264 125.994 34.4015 126.2213 34.8041 L 128.3275 38.5102 C 128.5563 38.9113 128.4208 39.4234 128.0261 39.656 Z" fill="#ffb549"/>
		<path id="Forma%201" d="M 224.9989 69.5009 C 218.5857 69.5009 212.5592 67.004 208.0261 62.4716 C 203.493 57.9384 200.9974 51.9113 200.9993 45.502 C 200.9974 39.0919 203.4911 33.0649 208.0203 28.5305 C 212.5514 23.9952 218.578 21.4974 224.9877 21.4974 L 225.0037 21.4974 C 238.2316 21.4974 248.9971 32.2637 249.001 45.4963 C 248.9971 58.7328 238.2296 69.5009 224.9989 69.5009 ZM 225.0028 23.4941 L 224.9877 23.4941 C 219.1112 23.4941 213.5867 25.7843 209.4329 29.9413 C 205.2789 34.0984 202.994 39.6241 202.9957 45.502 C 202.994 51.3794 205.2828 56.9038 209.4377 61.059 C 213.5925 65.215 219.119 67.5042 224.9989 67.5042 C 237.1285 67.5042 247.0005 57.6307 247.0044 45.4963 C 247.0005 33.3652 237.1305 23.4941 225.0028 23.4941 ZM 225.0189 64.9207 C 225.0189 64.9207 225.0178 64.9207 225.017 64.9207 C 219.8307 64.9207 214.9545 62.9011 211.286 59.2321 C 207.6167 55.5642 205.5978 50.6871 205.5988 45.502 C 205.5978 40.3164 207.6167 35.4399 211.2842 31.7712 C 214.9525 28.1025 219.8268 26.0825 225.0129 26.0825 L 225.017 26.0825 C 230.2056 26.0845 235.0823 28.1035 238.7498 31.7712 C 242.4172 35.4379 244.4355 40.3146 244.4346 45.502 C 244.437 56.2073 235.7272 64.9177 225.0189 64.9207 ZM 237.3381 33.183 C 234.0481 29.8926 229.6719 28.0811 225.017 28.0792 L 225.0129 27.0809 L 225.0129 28.0792 C 220.361 28.0792 215.9868 29.8905 212.6957 33.183 C 209.4065 36.4744 207.5942 40.8508 207.5953 45.502 C 207.5942 50.1544 209.4065 54.5289 212.6976 57.8203 C 215.9889 61.1122 220.363 62.924 225.017 62.924 C 225.0178 62.924 225.0178 62.924 225.0189 62.924 C 234.6261 62.921 242.4406 55.1061 242.4382 45.502 C 242.4391 40.8478 240.6283 36.4734 237.3381 33.183 ZM 237.9791 46.3916 L 226.2784 54.1793 C 225.9722 54.3842 225.5789 54.4022 225.2543 54.2295 C 224.9312 54.0546 224.7284 53.7173 224.7284 53.3488 L 224.7284 48.9172 L 214.4933 48.9172 C 214.4896 48.9172 214.4866 48.9152 214.4828 48.915 C 212.9847 48.9082 211.8125 47.4742 211.8125 45.6439 C 211.8125 43.8882 212.894 42.5117 214.3036 42.3943 C 214.3672 42.3816 214.426 42.3561 214.4933 42.3561 L 224.7284 42.3561 L 224.7284 37.7671 C 224.7284 37.3994 224.9312 37.0613 225.2554 36.8866 C 225.402 36.8068 225.5638 36.7677 225.7266 36.7677 C 225.9191 36.7677 226.1128 36.8242 226.2809 36.9354 L 237.98 44.731 C 238.2574 44.9163 238.4242 45.2277 238.4242 45.561 C 238.4242 45.8955 238.2574 46.2069 237.9791 46.3916 ZM 226.7247 39.6312 L 226.7247 43.3378 C 226.7247 43.7708 226.4475 44.1295 226.0636 44.2683 C 225.9414 44.3215 225.8076 44.3528 225.6658 44.3528 L 214.5707 44.3528 C 214.5438 44.3549 214.5208 44.3683 214.4933 44.3683 C 214.2146 44.3683 213.809 44.8655 213.809 45.6439 C 213.809 46.4224 214.2135 46.9197 214.4933 46.9197 C 214.4951 46.9197 214.4966 46.9207 214.4983 46.9207 L 225.6705 46.9207 C 225.8323 46.9207 225.9789 46.9677 226.1139 47.0356 C 226.4729 47.1868 226.7247 47.5415 226.7247 47.9559 L 226.7247 51.4852 L 235.6262 45.5601 L 226.7247 39.6312 Z" fill="#ffffff"/>
	</g>
</svg>